<svg width="8" height="12" viewBox="0 0 8 12" fill="none" xmlns="http://www.w3.org/2000/svg">
<path d="M0 0H2.888C3 0 3.13333 0.00533326 3.288 0.0159998C3.44267 0.0213334 3.592 0.0373335 3.736 0.0640001C4.36 0.16 4.88267 0.376 5.304 0.712C5.73067 1.04267 6.05067 1.45867 6.264 1.96C6.47733 2.46133 6.584 3.01867 6.584 3.632C6.584 4.496 6.37333 5.24 5.952 5.864C5.536 6.48267 4.91467 6.904 4.088 7.128C3.89067 7.18133 3.69867 7.21867 3.512 7.24C3.32533 7.256 3.10933 7.264 2.864 7.264H0V5.912H2.84C2.94133 5.912 3.056 5.90667 3.184 5.896C3.31733 5.88533 3.44267 5.86667 3.56 5.84C3.928 5.75467 4.22667 5.6 4.456 5.376C4.69067 5.14667 4.86133 4.88 4.968 4.576C5.07467 4.26667 5.128 3.952 5.128 3.632C5.128 3.312 5.07467 2.99733 4.968 2.688C4.86133 2.37867 4.69067 2.112 4.456 1.888C4.22667 1.65867 3.928 1.504 3.56 1.424C3.44267 1.392 3.31733 1.37333 3.184 1.368C3.056 1.35733 2.94133 1.352 2.84 1.352H0V0ZM0 7.264L1.488 6.8L6.824 11.52H4.792L0 7.264ZM0.0320001 4.2V3.056H7.784V4.2H0.0320001ZM2.744 1.144V0H7.752V1.144H2.744Z" fill="#98A2B3"/>
</svg>
